Coordinates
version=1
nRows=26
nColumns=22
inDegrees=yes

Units are S.I. units (second, meters, Newtons, ...)
If the header above contains a line with 'inDegrees', this indicates whether rotational values are in degrees (yes) or radians (no).

endheader
time	pelvis_tilt	pelvis_list	pelvis_rotation	pelvis_tx	pelvis_ty	pelvis_tz	hip_flexion_r	hip_adduction_r	hip_rotation_r	knee_angle_r	ankle_angle_r	subtalar_angle_r	hip_flexion_l	hip_adduction_l	hip_rotation_l	knee_angle_l	ankle_angle_l	subtalar_angle_l	lumbar_extension	lumbar_bending	lumbar_rotation
      5.23000000	     -4.30534759	      2.05707561	    249.18194325	     -0.60620412	      0.95505627	      0.24420662	      5.01540944	      3.88311892	     -3.83296857	    -17.82542160	     14.41163781	      7.88540245	     33.82673039	    -10.51556588	    -17.32191579	    -48.62900179	      7.01560903	     -1.67368073	     -9.47026601	      5.47983883	      4.62524798
      5.24000000	     -4.29069434	      2.10368698	    249.78977552	     -0.60709354	      0.95423307	      0.25084054	      4.57345925	      3.81333468	     -4.36635011	    -17.77250373	     14.80699875	      7.71205539	     33.83692732	    -10.30429072	    -17.05722021	    -46.08258326	      7.02205742	     -1.53880884	     -9.39453052	      5.46484033	      4.63295015
      5.25000000	     -4.29996434	      2.12479310	    250.39721834	     -0.60790612	      0.95338316	      0.25751721	      4.08650929	      3.76693642	     -4.85923743	    -17.70560850	     15.18581010	      7.47456554	     33.76167969	    -10.06269195	    -16.64649743	    -43.49043607	      7.03340904	     -1.38906211	     -9.35426719	      5.45503849	      4.63913780
      5.26000000	     -4.28821693	      2.21575560	    251.00966769	     -0.60861932	      0.95230727	      0.26419404	      3.71862416	      3.71849035	     -5.39171139	    -17.71230330	     15.60594446	      7.30096216	     33.73369453	     -9.79086867	    -16.09684235	    -40.88587556	      7.03544433	     -1.31135610	     -9.22824677	      5.43940114	      4.64222428
      5.27000000	     -4.30276165	      2.28777254	    251.62435871	     -0.60927110	      0.95120407	      0.27091152	      3.31499588	      3.69628750	     -5.90603669	    -17.70962091	     16.00776313	      7.10560602	     33.63440026	     -9.52559348	    -15.43837885	    -38.26879399	      7.07442374	     -1.27488896	     -9.13196815	      5.43105453	      4.64495583
      5.28000000	     -4.33476993	      2.36718492	    252.23086814	     -0.60988124	      0.95003175	      0.27765521	      2.91901017	      3.70067810	     -6.39842681	    -17.71876037	     16.39658702	      6.89829135	     33.50046534	     -9.29096383	    -14.71597765	    -35.66240007	      7.16299809	     -1.29970995	     -9.03354221	      5.42858908	      4.66010260
      5.29000000	     -4.39917189	      2.42035732	    252.82745131	     -0.61044251	      0.94886372	      0.28441252	      2.49310924	      3.73722813	     -6.86227439	    -17.73957542	     16.75037006	      6.62667469	     33.29671310	     -9.10196652	    -13.96131313	    -33.07723567	      7.28483933	     -1.43158352	     -8.98208302	      5.43796636	      4.68327157
      5.30000000	     -4.45573767	      2.51567025	    253.41379623	     -0.61096815	      0.94757508	      0.29122881	      2.11948243	      3.78098939	     -7.32736831	    -17.77288807	     17.11148635	      6.35986206	     33.11769446	     -8.95696473	    -13.24492766	    -30.54769781	      7.46259143	     -1.62803596	     -8.87374072	      5.43736510	      4.71625633
      5.31000000	     -4.51930308	      2.61760918	    253.98567842	     -0.61144919	      0.94624150	      0.29809948	      1.75766849	      3.83700222	     -7.77525624	    -17.81971604	     17.45984809	      6.07219532	     32.93032703	     -8.86310042	    -12.60397290	    -28.09197526	      7.67251551	     -1.89959051	     -8.75866117	      5.43208715	      4.76223677
      5.32000000	     -4.58484145	      2.72894707	    254.54240231	     -0.61187541	      0.94485662	      0.30502142	      1.42439179	      3.89658569	     -8.21138081	    -17.90192903	     17.80221177	      5.78857636	     32.75308630	     -8.81814821	    -12.08293291	    -25.73933712	      7.89506417	     -2.20932508	     -8.63352249	      5.41853462	      4.81608614
      5.33000000	     -4.64244813	      2.84331479	    255.08322781	     -0.61225293	      0.94343610	      0.31203601	      1.10211040	      3.95087777	     -8.61670832	    -17.99888062	     18.13691612	      5.50492919	     32.59009386	     -8.80955872	    -11.73079141	    -23.51969855	      8.11819313	     -2.57351179	     -8.49597126	      5.38408080	      4.87589291
      5.34000000	     -4.69897354	      2.95031442	    255.61006221	     -0.61255125	      0.94199592	      0.31912384	      0.80248604	      3.99576773	     -9.01698293	    -18.15419149	     18.45646539	      5.27058723	     32.44529950	     -8.83130479	    -11.55767402	    -21.46751371	      8.30727808	     -2.92066542	     -8.36656161	      5.33594283	      4.95013386
      5.35000000	     -4.74168963	      3.04900947	    256.12335337	     -0.61277335	      0.94053545	      0.32633699	      0.50787623	      4.02104923	     -9.39281973	    -18.33793081	     18.77095040	      5.07726196	     32.32969587	     -8.86669840	    -11.60832078	    -19.61975896	      8.47033942	     -3.27417550	     -8.23494068	      5.26159520	      5.02339884
      5.36000000	     -4.77578762	      3.12783701	    256.62625700	     -0.61289565	      0.93907575	      0.33368730	      0.20862822	      4.02510353	     -9.75823077	    -18.55924461	     19.07218292	      4.94277534	     32.24178904	     -8.90798880	    -11.88542985	    -18.01282418	      8.59492966	     -3.60281840	     -8.11697287	      5.16733161	      5.09888400
      5.37000000	     -4.80050769	      3.21646794	    257.13413447	     -0.61288088	      0.93755122	      0.34118085	     -0.05394894	      4.00890631	    -10.13663105	    -18.84130297	     19.37151966	      4.87218518	     32.24020677	     -8.94994724	    -12.37791803	    -16.70528268	      8.74327682	     -3.80302066	     -7.97820631	      5.06660806	      5.14425018
      5.38000000	     -4.81738848	      3.20730485	    257.61817359	     -0.61277019	      0.93620291	      0.34890010	     -0.45276118	      3.95928645	    -10.47133038	    -19.08132656	     19.64209432	      4.85728624	     32.16091562	     -8.97374490	    -13.09991757	    -15.64881638	      8.76248775	     -4.13140406	     -7.93876804	      4.92726875	      5.23618669
      5.39000000	     -4.85316252	      3.17228985	    258.11734247	     -0.61249128	      0.93487723	      0.35681080	     -0.88683537	      3.91323796	    -10.80960595	    -19.33772552	     19.84753386	      4.94035288	     32.13864710	     -9.01194535	    -14.00990174	    -14.94907508	      8.79377489	     -4.45533947	     -7.92581679	      4.81121178	      5.28738426
      5.40000000	     -4.87270447	      3.12883921	    258.61539843	     -0.61205733	      0.93355208	      0.36493092	     -1.32960305	      3.83346689	    -11.15050380	    -19.61574468	     20.04607325	      5.04535408	     32.16017375	     -9.03131802	    -15.02788802	    -14.56421079	      8.85851000	     -4.68910913	     -7.90570885	      4.67848319	      5.35469418
      5.41000000	     -4.91658401	      3.00341222	    259.12315079	     -0.61144447	      0.93238949	      0.37328129	     -1.89371027	      3.75585130	    -11.44805422	    -19.86952694	     20.16549792	      5.32401847	     32.13240834	     -9.05446587	    -16.12176071	    -14.48420883	      8.84241552	     -5.00308157	     -7.97805571	      4.56501021	      5.39658194
      5.42000000	     -4.94738530	      2.88418297	    259.61835838	     -0.61069942	      0.93122938	      0.38186472	     -2.46390855	      3.65604877	    -11.70277422	    -20.12715181	     20.26262671	      5.56393756	     32.13366911	     -9.07246129	    -17.23952932	    -14.68510960	      8.85603045	     -5.25633723	     -8.02301865	      4.44197640	      5.46936533
      5.43000000	     -5.00935410	      2.72032413	    260.13548993	     -0.60973821	      0.93017499	      0.39067452	     -3.10202773	      3.56522670	    -11.95933386	    -20.38824509	     20.25922263	      5.99647016	     32.09916818	     -9.09303442	    -18.26625095	    -15.13395937	      8.79990880	     -5.59018310	     -8.11409452	      4.36008467	      5.52144935
      5.44000000	     -5.06869365	      2.56112669	    260.62314443	     -0.60867481	      0.92915998	      0.39970284	     -3.75230333	      3.47253801	    -12.09236336	    -20.64279011	     20.21817121	      6.35220321	     32.05192674	     -9.11765316	    -19.22405874	    -15.77727473	      8.70490387	     -5.88270916	     -8.18396580	      4.27771384	      5.61979568
      5.45000000	     -5.13068628	      2.40637730	    261.12982962	     -0.60738208	      0.92817416	      0.40893898	     -4.38765069	      3.36555614	    -12.21813382	    -20.94406223	     20.09052788	      6.86034234	     31.98754298	     -9.10444576	    -19.98451323	    -16.55532645	      8.52440185	     -6.25499545	     -8.23507009	      4.21431713	      5.69294974
      5.46000000	     -5.20108027	      2.26644664	    261.60825358	     -0.60595454	      0.92724129	      0.41834626	     -5.00423663	      3.27158621	    -12.19591116	    -21.26622480	     19.86407893	      7.26701808	     31.90325353	     -9.08389147	    -20.57869393	    -17.42553044	      8.28065615	     -6.60675057	     -8.26167275	      4.16840823	      5.80219546
      5.47000000	     -5.22354746	      2.16301996	    262.12273270	     -0.60423983	      0.92631401	      0.42793568	     -5.54912744	      3.11076812	    -12.21684210	    -21.65583941	     19.63705440	      7.87923898	     31.82324130	     -8.94280441	    -20.91719090	    -18.30172716	      7.80952434	     -7.11422258	     -8.22250451	      4.08852497	      5.87773704
      5.48000000	     -5.21657407	      2.10549552	    262.63837369	     -0.60230511	      0.92543176	      0.43763800	     -5.99663112	      2.91791629	    -12.15923477	    -22.12948159	     19.28684135	      8.45924195	     31.76319350	     -8.71923822	    -21.03020222	    -19.15837632	      7.21979524	     -7.65091914	     -8.12234453	      3.99256501	      5.94379949
